# xmcd
#
# Track frame offsets:
#	150
#	47348
#	98847
#	114434
#	142577
#	182199
#	224932
#	264595
#	294219
#	314578
#
# Disc length: 4549 seconds
#
# Revision: 1
# Processed by: cddbd v1.5.2PL0 Copyright (c) Steve Scherf et al.
# Submitted via: audiograbber 1.83.01
#
DISCID=9111c30a
DTITLE=Grateful Dead - 80-12-28 Oakland Auditorium Arena, Oakland CA
DYEAR=1900
DGENRE=
TTITLE0=Mississippi Half-Step
TTITLE1=Franklin's Tower
TTITLE2=Me and My Uncle
TTITLE3=Big River
TTITLE4=Bird Song
TTITLE5=Little Red Rooster
TTITLE6=Althea
TTITLE7=Jack Straw
TTITLE8=Don't Ease Me In
TTITLE9=Casey Jones
EXTD=
EXTT0=
EXTT1=
EXTT2=
EXTT3=
EXTT4=
EXTT5=
EXTT6=
EXTT7=
EXTT8=
EXTT9=
PLAYORDER=
